<?xml version="1.0" encoding="utf-8"?>
<!-- Generator: Adobe Illustrator 25.0.0, SVG Export Plug-In . SVG Version: 6.00 Build 0)  -->
<svg version="1.1" id="Capa_1" xmlns="http://www.w3.org/2000/svg" xmlns:xlink="http://www.w3.org/1999/xlink" x="0px" y="0px"
	 viewBox="0 0 16 16" style="enable-background:new 0 0 16 16;" xml:space="preserve">
<style type="text/css">
	.st0{fill:#F3F2F2;}
	.st1{fill:#323237;}
</style>
<rect class="st0" width="16" height="16"/>
<g>
	<g>
		<g>
			<g>
				<g>
					<path class="st1" d="M11.6,0H4.4C2,0,0,2,0,4.4v7.2C0,14,2,16,4.4,16h7.2c2.4,0,4.4-2,4.4-4.4V4.4C16,2,14,0,11.6,0z
						 M14.6,11.6c0,1.7-1.3,3-3,3H4.4c-1.7,0-3-1.3-3-3V4.4c0-1.7,1.3-3,3-3h7.2c1.7,0,3,1.3,3,3V11.6z"/>
					<path class="st1" d="M8,3.9C5.7,3.9,3.9,5.7,3.9,8c0,2.3,1.8,4.1,4.1,4.1s4.1-1.8,4.1-4.1C12.1,5.7,10.3,3.9,8,3.9z M8,10.7
						c-1.5,0-2.7-1.2-2.7-2.7S6.5,5.3,8,5.3s2.7,1.2,2.7,2.7S9.5,10.7,8,10.7z M12.1,2.9c-0.3,0-0.5,0.1-0.7,0.3
						c-0.2,0.2-0.3,0.4-0.3,0.7c0,0.3,0.1,0.5,0.3,0.7c0.2,0.2,0.4,0.3,0.7,0.3c0.3,0,0.5-0.1,0.7-0.3c0.2-0.2,0.3-0.4,0.3-0.7
						c0-0.3-0.1-0.5-0.3-0.7C12.6,3,12.4,2.9,12.1,2.9L12.1,2.9z"/>
				</g>
			</g>
		</g>
	</g>
</g>
</svg>
