<svg xmlns="http://www.w3.org/2000/svg" width="16" height="16" viewBox="0 0 16 16">
    <g fill="none" fill-rule="evenodd">
        <g fill-rule="nonzero">
            <g>
                <g>
                    <g>
                        <path fill="#323237" d="M13.696.308H2.158C1.097.308.234 1.17.234 2.23v11.538c0 1.06.863 1.923 1.924 1.923h11.538c1.06 0 1.923-.862 1.923-1.923V2.231c0-1.06-.862-1.923-1.923-1.923z" transform="translate(-1145 -425) translate(0 401) translate(930 16) translate(215 8)"/>
                        <path fill="#FAFAFA" d="M13.158 7.503h-2.462V5.609c0-.522.441-.473.985-.473h.984V2.77h-1.969c-1.632 0-2.954 1.272-2.954 2.84v1.894h-1.97V9.87h1.97v5.207h2.954V9.87h1.477l.985-2.367z" transform="translate(-1145 -425) translate(0 401) translate(930 16) translate(215 8)"/>
                    </g>
                </g>
            </g>
        </g>
    </g>
</svg>
