<svg xmlns="http://www.w3.org/2000/svg" width="22" height="16" viewBox="0 0 22 16">
    <g fill="none" fill-rule="evenodd">
        <g fill-rule="nonzero">
            <g>
                <g>
                    <g>
                        <path fill="#323237" d="M21.547 2.504c-.254-.98-.997-1.751-1.94-2.015C17.888 0 11 0 11 0S4.114 0 2.392.47C1.468.735.707 1.526.453 2.505 0 4.292 0 8 0 8s0 3.727.453 5.496c.254.98.997 1.751 1.94 2.015C4.131 16 11 16 11 16s6.886 0 8.608-.47c.942-.264 1.685-1.036 1.939-2.015C22 11.727 22 8.02 22 8.02s.018-3.727-.453-5.515z" transform="translate(-1209 -425) translate(0 401) translate(930 16) translate(279 8)"/>
                        <path fill="#FFF" d="M9 11L15 8 9 5z" transform="translate(-1209 -425) translate(0 401) translate(930 16) translate(279 8)"/>
                    </g>
                </g>
            </g>
        </g>
    </g>
</svg>
